<svg xmlns="http://www.w3.org/2000/svg" viewBox="2326.726 5536.91 34.087 34.09"><g transform="translate(2326.726 5536.91)"><path d="M108.54,822.3a4.44,4.44,0,1,0,4.44,4.44A4.458,4.458,0,0,0,108.54,822.3Z" transform="translate(-91.484 -809.657)"/><path d="M72.29,773.269a4.63,4.63,0,0,0-3.773-4.234,17.964,17.964,0,0,0-3.6-.267c-2.244-.024-4.5-.024-6.745,0a25.416,25.416,0,0,0-3.033.158,4.938,4.938,0,0,0-3.178,1.553,5.45,5.45,0,0,0-1.237,3.324c-.146,1.88-.109,3.761-.121,5.629v.7c.024,1.989-.036,3.967.182,5.956a4.617,4.617,0,0,0,3.748,4.222,16.562,16.562,0,0,0,3.627.267c2.244.036,4.5.024,6.745,0a19.612,19.612,0,0,0,3.372-.218,4.5,4.5,0,0,0,3.845-3.506,14.087,14.087,0,0,0,.3-3.19c.036-1.844.036-3.676.036-5.519A46.908,46.908,0,0,0,72.29,773.269ZM61.481,786.528a6.848,6.848,0,1,1,6.9-6.781A6.871,6.871,0,0,1,61.481,786.528Zm7.157-12.349a1.647,1.647,0,0,1-1.613-1.626,1.6,1.6,0,0,1,1.6-1.589,1.607,1.607,0,0,1,.012,3.215Z" transform="translate(-44.474 -762.603)"/><path d="M34.187,724a6.029,6.029,0,0,0-3.942-5.6,5.4,5.4,0,0,0-1.807-.315c-7.533,0-15.078-.012-22.612.012a5.658,5.658,0,0,0-4.864,2.8,5.679,5.679,0,0,0-.788,2.014c-.012.061.012.158-.073.182v24.067a5.076,5.076,0,0,1,.243.837,6.03,6.03,0,0,0,2.56,3.3,5.829,5.829,0,0,0,1.977.788c.061.012.158-.012.182.085H29.129c.291-.133.619-.146.922-.255a5.936,5.936,0,0,0,3.251-2.535,5.861,5.861,0,0,0,.886-3.251Q34.151,735.061,34.187,724Zm-3.773,16.765a8.845,8.845,0,0,1-1.152,4.221,6.867,6.867,0,0,1-4.67,3.19,19.131,19.131,0,0,1-3.724.291c-2.644.012-5.277.012-7.921-.012a12.775,12.775,0,0,1-4.173-.534,6.836,6.836,0,0,1-4.646-5.338,18.176,18.176,0,0,1-.291-3.712c-.012-2.645-.012-5.277.012-7.921a12.775,12.775,0,0,1,.534-4.173A6.857,6.857,0,0,1,9.72,722.13a17.874,17.874,0,0,1,3.688-.291c2.644-.012,5.3-.024,7.946.012a12.775,12.775,0,0,1,4.173.534,6.857,6.857,0,0,1,4.646,5.338,18.758,18.758,0,0,1,.291,3.688c.024,1.25,0,2.487,0,3.736C30.487,737.026,30.512,738.894,30.415,740.763Z" transform="translate(-0.1 -718.075)"/></g></svg>